<svg width="48" height="36" viewBox="0 0 48 36" fill="none" xmlns="http://www.w3.org/2000/svg">
<path d="M7.99997 36V30.7692H2.66666V36H0V22.9231H2.66666V28.1539H7.99997V22.9231H10.6666V36H7.99997Z" fill="#595959"/>
<path d="M15.9994 36V25.5385H12.2661V22.9231H22.1327V25.5385H18.6661V36H15.9994Z" fill="#595959"/>
<path d="M23.9995 36V22.9231H26.6662L30.3995 31.8154H30.6662L34.6661 22.9231H37.3328V36H34.6661V27.8923H34.3995L31.4661 34.4308H29.8662L26.9328 27.8923H26.6662V36H23.9995Z" fill="#595959"/>
<path d="M48.0001 36H40.0001V22.9231H42.6668V33.3846H48.0001V36Z" fill="#595959"/>
<path d="M22.3996 3.13846L16.2663 9.15383L22.3996 15.1692L20.7996 18.3077L11.4663 9.15383L20.7996 0L22.3996 3.13846ZM25.5996 15.1692L31.7329 9.15383L25.5996 3.13846L27.1996 0L36.5329 9.15383L27.1996 18.3077L25.5996 15.1692Z" fill="#595959"/>
</svg>
